PathFileType	4	(X/Y/Z)	s10c0102.trc
DataRate	CameraRate	NumFrames	NumMarkers	Units	OrigDataRate	OrigDataStartFrame	OrigNumFrames
200	200	5	50	mm	200	1000	2000
Frame#	Time	racr			lacr			c7			jug			rlel			rdr			llel			ldr			s2			lic			ric			lasi			rasi			rpsi			lpsi			rgt			lgt			rth1			rth2			rth3			rth4			rlfc			rmfc			rsh1			rsh2			rsh3			rsh4			rlmal			rmmal			rcal			rtoe			rmt5			lth1			lth2			lth4			lth3			llfc			lmfc			llmal			lmmal			lcal			lmt5			lsh1			lsh2			lsh3			lsh4			ltoe			SBIKE			LBIKE			RBIKE			
		X1	Y1	Z1	X2	Y2	Z2	X3	Y3	Z3	X4	Y4	Z4	X5	Y5	Z5	X6	Y6	Z6	X7	Y7	Z7	X8	Y8	Z8	X9	Y9	Z9	X10	Y10	Z10	X11	Y11	Z11	X12	Y12	Z12	X13	Y13	Z13	X14	Y14	Z14	X15	Y15	Z15	X16	Y16	Z16	X17	Y17	Z17	X18	Y18	Z18	X19	Y19	Z19	X20	Y20	Z20	X21	Y21	Z21	X22	Y22	Z22	X23	Y23	Z23	X24	Y24	Z24	X25	Y25	Z25	X26	Y26	Z26	X27	Y27	Z27	X28	Y28	Z28	X29	Y29	Z29	X30	Y30	Z30	X31	Y31	Z31	X32	Y32	Z32	X33	Y33	Z33	X34	Y34	Z34	X35	Y35	Z35	X36	Y36	Z36	X37	Y37	Z37	X38	Y38	Z38	X39	Y39	Z39	X40	Y40	Z40	X41	Y41	Z41	X42	Y42	Z42	X43	Y43	Z43	X44	Y44	Z44	X45	Y45	Z45	X46	Y46	Z46	X47	Y47	Z47	X48	Y48	Z48	X49	Y49	Z49	X50	Y50	Z50	
1000	5.0000	456.725475	1279.504350	-110.457883	420.563628	1276.049692	-397.057285	395.176291	1308.087423	-247.733087	426.199036	1169.104778	-242.783779	493.679075	1034.350523	1.147565	643.004755	874.398141	-50.510134	490.532414	1034.380336	-511.757022	635.529446	889.387391	-418.113638	-110.888308	1091.628989	-197.667134	38.464139	1138.373023	-358.463255	81.663771	1105.273632	-62.125992	70.733040	1051.185764	-323.751173	77.124098	1019.794892	-80.468405	-69.004425	1145.901752	-132.114065	-74.748770	1161.081044	-244.162613	-37.087022	980.874833	-19.044200	-27.180346	1023.486985	-411.833591	21.563977	849.815874	0.803204	78.709285	782.493750	-11.916021	92.433544	698.755402	-24.526771	112.070001	800.254102	-17.683371	144.284420	606.560556	-40.781188	137.060503	599.753181	-157.354829	77.647965	510.691183	-18.770459	78.450377	422.990057	-32.522258	36.163360	348.053446	-43.222824	111.259191	418.056284	-51.589739	12.606366	245.926211	-60.557418	50.937272	261.035958	-134.481481	-38.009794	236.523343	-109.286881	194.462281	167.470302	-99.451457	107.114252	157.265307	-39.499018	99.479840	990.918188	-411.447742	179.979426	1007.137686	-382.995238	178.075795	1037.645934	-361.861265	265.129059	983.426511	-380.308019	371.888877	969.101165	-348.405711	372.443000	945.792187	-220.630771	178.573777	635.238436	-374.323068	197.667976	623.469406	-295.708367	120.134966	626.044136	-332.749250	226.395877	484.940148	-398.210602	306.794372	871.077609	-382.670390	288.146911	786.538385	-376.806487	227.636965	721.181830	-379.954868	316.184043	772.247992	-355.554372	307.088967	452.562221	-345.235405	-218.226241	833.575241	-213.284400	-104.026692	80.704135	-418.317438	-104.016382	80.462041	-18.269494	
1001	5.0050	457.707211	1279.205802	-111.574900	419.700903	1275.925919	-398.923257	395.679009	1307.631128	-248.821253	426.693880	1168.648130	-243.829239	493.853885	1034.379143	1.126238	643.047058	874.417109	-50.456423	488.562621	1032.916209	-512.268098	635.299736	889.306709	-417.995038	-110.333090	1092.785627	-198.243770	39.160635	1140.333665	-357.351038	82.938512	1105.534100	-61.746330	69.779872	1051.897485	-322.878857	76.979007	1020.515670	-80.113640	-69.064924	1147.124699	-132.293857	-74.559263	1162.611116	-244.226965	-37.919851	981.892126	-19.076917	-26.591365	1024.995473	-412.747028	20.952457	850.160860	0.127015	79.274360	783.576872	-12.093724	94.438959	700.311391	-24.792942	112.237304	801.566396	-17.340465	146.436332	609.254932	-39.756528	141.613376	600.853130	-156.059485	77.522180	514.843641	-18.227876	76.205439	427.124118	-32.153548	32.153847	353.259250	-43.322273	109.003154	421.338383	-50.969045	5.726851	252.268759	-60.960141	35.230034	262.376289	-137.673026	-45.173962	243.791652	-110.080355	185.525852	168.636179	-99.252329	97.648414	160.978314	-39.622487	98.929992	992.167166	-411.754276	179.726340	1007.018584	-383.371959	178.317787	1037.557834	-362.200348	264.384394	981.888950	-381.152524	370.282648	967.100190	-350.117782	369.725407	944.460339	-221.992851	182.600906	630.308198	-374.770920	202.011013	619.427280	-296.568287	124.185976	619.281773	-333.518866	235.493155	481.955588	-398.629671	304.710462	869.442660	-382.008895	288.586339	784.414888	-377.514189	229.824031	717.384788	-380.416715	317.320002	770.520026	-356.858208	317.367587	453.069676	-345.650882	-218.440450	833.603514	-213.416214	-104.021916	80.712537	-418.348331	-104.011892	80.428129	-18.271713	
1002	5.0100	458.609678	1278.754797	-112.689263	418.785737	1275.743088	-400.509316	396.077754	1307.262472	-249.756619	426.716428	1168.193179	-244.839414	493.973809	1034.348099	1.230947	642.999394	874.459360	-50.510003	486.684118	1031.587648	-512.562816	635.020030	889.166238	-417.867841	-110.102556	1093.949653	-198.605769	39.632829	1141.994306	-355.951151	83.101612	1105.933629	-61.943206	68.993653	1052.776950	-322.778472	76.831184	1021.277145	-79.665995	-69.062366	1148.190493	-132.644702	-74.142521	1163.689309	-245.178228	-38.768740	983.143166	-19.270570	-26.176020	1026.113676	-413.435113	20.826997	850.711735	-0.271038	80.249825	785.082937	-12.514668	96.985995	702.246538	-25.017553	112.907277	803.641155	-16.623166	149.418668	612.343533	-38.809973	147.025644	602.787902	-155.002748	78.368153	519.411860	-17.766893	74.774916	431.803300	-31.925435	28.958397	359.271445	-43.150976	107.475062	425.221361	-50.585497	-0.620506	259.097875	-61.378849	29.634779	268.428253	-137.908773	-51.631584	251.863882	-110.471244	176.796302	170.083223	-99.118613	88.702706	165.461719	-39.766437	98.159664	992.353385	-411.948409	179.384938	1005.736493	-383.873728	178.667200	1036.333496	-362.892185	263.461700	978.702420	-381.913301	369.022511	963.504676	-351.828020	367.547471	942.045862	-223.662053	186.003982	624.348940	-375.500321	204.722846	613.876430	-297.855081	127.840209	611.383257	-334.361292	244.274392	478.707214	-399.580450	302.625542	866.363940	-381.381364	288.804232	780.720462	-378.457668	231.578834	712.470246	-381.445212	318.113768	767.274723	-358.396171	327.243178	453.036215	-346.054096	-218.285729	833.436777	-213.490420	-104.019380	80.683789	-418.348396	-104.054600	80.483399	-18.273311	
1003	5.0150	459.449160	1278.268778	-113.836031	417.902282	1275.439239	-401.720651	396.388290	1306.779125	-250.635182	426.814070	1167.659754	-245.805323	494.046732	1034.230794	1.465699	642.946769	874.545066	-50.583823	484.926709	1030.397815	-512.644811	634.739557	889.012242	-417.733155	-110.070006	1094.961608	-198.997386	39.942724	1143.594525	-354.784000	83.195475	1106.396402	-62.097439	68.283275	1053.392155	-323.099245	76.382518	1022.124797	-79.472787	-69.141295	1149.271549	-133.111180	-73.855470	1164.883749	-246.078856	-39.713695	984.699558	-19.427548	-25.997053	1026.807054	-413.818286	20.851828	851.474866	-0.754799	81.685135	787.173769	-12.549887	100.118447	704.577303	-25.207334	114.194454	806.578874	-15.658547	153.178610	615.720804	-38.027643	153.019227	605.422672	-154.125813	80.148618	524.322771	-17.428953	74.073513	436.830467	-31.806565	26.139674	365.662992	-43.440782	106.737466	429.164555	-50.492336	-6.468601	266.458008	-61.720712	24.405101	274.948136	-138.205124	-57.545785	260.691205	-110.935886	168.430836	172.109880	-99.070105	80.157315	170.366413	-39.873266	97.118580	991.671002	-411.971231	178.825148	1003.361298	-384.500145	178.712767	1034.190652	-363.599574	262.238871	974.462276	-382.915871	367.723175	958.440665	-353.827523	365.496422	938.411021	-225.534738	188.746742	617.181836	-376.450489	207.954389	607.379284	-299.494098	130.946871	602.413424	-335.406925	252.573414	474.786837	-400.367622	300.597552	862.006642	-381.166555	288.784637	775.753952	-380.097952	232.775791	706.396082	-382.770364	318.537855	762.493765	-360.287627	336.613339	452.561512	-346.405003	-218.374421	833.392863	-213.636109	-104.040973	80.610575	-418.356415	-104.031869	80.461204	-18.288364	
1004	5.0200	460.214321	1277.653812	-114.995787	417.183344	1275.033142	-402.644913	396.567844	1306.334560	-251.369963	426.691294	1167.140541	-246.793364	494.022985	1034.026717	1.784796	642.796621	874.570598	-50.694279	483.206655	1029.350811	-512.530498	634.495668	888.833745	-417.626100	-111.718760	1098.233596	-199.887709	39.945662	1144.979106	-353.558529	83.141286	1106.872012	-62.245275	67.635184	1053.767522	-323.371161	75.828774	1022.967897	-79.290951	-69.245023	1150.629641	-133.442419	-73.666902	1166.162119	-246.724582	-40.578618	986.083820	-19.646518	-26.113126	1027.073867	-413.789854	21.314712	852.420124	-1.180743	83.573365	789.501231	-12.624859	103.744397	707.190772	-25.303138	115.565598	809.652794	-15.267205	157.640484	619.253398	-37.521322	159.182159	608.909950	-153.570155	82.773361	529.256929	-17.151779	74.037475	442.019552	-31.787838	23.936160	372.428143	-43.523960	106.421993	433.607841	-50.544825	-11.633964	274.623122	-61.726181	19.552323	282.142397	-138.540610	-63.011716	270.097863	-111.292495	160.305145	174.592298	-99.056837	71.867410	175.894510	-40.148730	95.771858	990.123987	-412.035318	178.036526	1000.238277	-385.484174	178.784755	1031.157625	-364.905452	260.764028	969.347100	-384.337219	366.551842	952.387839	-356.035966	363.394329	933.280865	-227.703798	191.145444	609.382022	-378.126764	210.883778	599.801307	-300.925892	133.638270	592.407689	-336.982225	260.350493	469.819404	-401.232058	298.824586	855.783411	-381.272138	288.532483	769.223633	-382.097251	233.473517	699.082265	-384.338119	318.705538	756.260536	-362.529895	345.460170	451.923179	-346.997507	-218.435061	833.378483	-213.784142	-103.735826	80.586913	-418.189852	-104.058286	80.454924	-18.295858	
